{
    "asset" : {
        "generator" : "Khronos glTF Blender I/O v3.2.0",
        "version" : "2.0"
    },
    "extensionsUsed" : [
        "KHR_materials_transmission"
    ],
    "scene" : 1,
    "scenes" : [
        {
            "name" : "FORM",
            "nodes" : [
                0
            ]
        },
        {
            "name" : "TERRAIN",
            "nodes" : [
                1
            ]
        }
    ],
    "nodes" : [
        {
            "mesh" : 0,
            "name" : "FORM",
            "scale" : [
                1.0158246755599976,
                1.015824556350708,
                1.0158251523971558
            ]
        },
        {
            "mesh" : 1,
            "name" : "TERRAIN"
        }
    ],
    "materials" : [
        {
            "alphaMode" : "BLEND",
            "emissiveFactor" : [
                0.01919732615351677,
                0.9386863112449646,
                0.8592621088027954
            ],
            "name" : "FORM",
            "pbrMetallicRoughness" : {
                "baseColorFactor" : [
                    0.01398726087063551,
                    0.9117653965950012,
                    0.9386863112449646,
                    0.20000000298023224
                ],
                "metallicFactor" : 0
            }
        },
        {
            "name" : "glasses_frame",
            "pbrMetallicRoughness" : {
                "baseColorFactor" : [
                    0,
                    0,
                    0,
                    1
                ],
                "roughnessFactor" : 0
            }
        },
        {
            "extensions" : {
                "KHR_materials_transmission" : {
                    "transmissionFactor" : 1
                }
            },
            "name" : "glasses_glass",
            "pbrMetallicRoughness" : {
                "baseColorFactor" : [
                    0.16202937066555023,
                    1,
                    0,
                    1
                ],
                "roughnessFactor" : 0
            }
        },
        {
            "name" : "surface",
            "pbrMetallicRoughness" : {
                "baseColorFactor" : [
                    0,
                    0,
                    0,
                    1
                ],
                "metallicFactor" : 0.34210526943206787,
                "roughnessFactor" : 0.5
            }
        }
    ],
    "meshes" : [
        {
            "name" : "FORM",
            "primitives" : [
                {
                    "attributes" : {
                        "POSITION" : 0,
                        "NORMAL" : 1,
                        "TEXCOORD_0" : 2
                    },
                    "indices" : 3,
                    "material" : 0
                },
                {
                    "attributes" : {
                        "POSITION" : 4,
                        "NORMAL" : 5,
                        "TEXCOORD_0" : 6
                    },
                    "indices" : 7,
                    "material" : 1
                },
                {
                    "attributes" : {
                        "POSITION" : 8,
                        "NORMAL" : 9,
                        "TEXCOORD_0" : 10
                    },
                    "indices" : 11,
                    "material" : 2
                }
            ]
        },
        {
            "name" : "TERRAIN",
            "primitives" : [
                {
                    "attributes" : {
                        "POSITION" : 12,
                        "NORMAL" : 13,
                        "TEXCOORD_0" : 14
                    },
                    "indices" : 15,
                    "material" : 3
                }
            ]
        }
    ],
    "accessors" : [
        {
            "bufferView" : 0,
            "componentType" : 5126,
            "count" : 180,
            "max" : [
                0.8874238729476929,
                2.087523937225342,
                0.9998029470443726
            ],
            "min" : [
                -1.3013771772384644,
                -2.1232824325561523,
                -1.000196933746338
            ],
            "type" : "VEC3"
        },
        {
            "bufferView" : 1,
            "componentType" : 5126,
            "count" : 180,
            "type" : "VEC3"
        },
        {
            "bufferView" : 2,
            "componentType" : 5126,
            "count" : 180,
            "type" : "VEC2"
        },
        {
            "bufferView" : 3,
            "componentType" : 5123,
            "count" : 180,
            "type" : "SCALAR"
        },
        {
            "bufferView" : 4,
            "componentType" : 5126,
            "count" : 264,
            "max" : [
                1.09047269821167,
                1.231968879699707,
                0.5390002131462097
            ],
            "min" : [
                0.6611300110816956,
                0.7829358577728271,
                -0.5323853492736816
            ],
            "type" : "VEC3"
        },
        {
            "bufferView" : 5,
            "componentType" : 5126,
            "count" : 264,
            "type" : "VEC3"
        },
        {
            "bufferView" : 6,
            "componentType" : 5126,
            "count" : 264,
            "type" : "VEC2"
        },
        {
            "bufferView" : 7,
            "componentType" : 5123,
            "count" : 468,
            "type" : "SCALAR"
        },
        {
            "bufferView" : 8,
            "componentType" : 5126,
            "count" : 8,
            "max" : [
                1.0674304962158203,
                1.1992778778076172,
                0.5063089728355408
            ],
            "min" : [
                1.0674302577972412,
                0.815626859664917,
                -0.49969422817230225
            ],
            "type" : "VEC3"
        },
        {
            "bufferView" : 9,
            "componentType" : 5126,
            "count" : 8,
            "type" : "VEC3"
        },
        {
            "bufferView" : 10,
            "componentType" : 5126,
            "count" : 8,
            "type" : "VEC2"
        },
        {
            "bufferView" : 11,
            "componentType" : 5123,
            "count" : 12,
            "type" : "SCALAR"
        },
        {
            "bufferView" : 12,
            "componentType" : 5126,
            "count" : 2607,
            "max" : [
                50.00001525878906,
                34.5471305847168,
                50.00001525878906
            ],
            "min" : [
                -50.00001525878906,
                -2.5033950805664062e-06,
                -50.00001525878906
            ],
            "type" : "VEC3"
        },
        {
            "bufferView" : 13,
            "componentType" : 5126,
            "count" : 2607,
            "type" : "VEC3"
        },
        {
            "bufferView" : 14,
            "componentType" : 5126,
            "count" : 2607,
            "type" : "VEC2"
        },
        {
            "bufferView" : 15,
            "componentType" : 5123,
            "count" : 4056,
            "type" : "SCALAR"
        }
    ],
    "bufferViews" : [
        {
            "buffer" : 0,
            "byteLength" : 2160,
            "byteOffset" : 0
        },
        {
            "buffer" : 0,
            "byteLength" : 2160,
            "byteOffset" : 2160
        },
        {
            "buffer" : 0,
            "byteLength" : 1440,
            "byteOffset" : 4320
        },
        {
            "buffer" : 0,
            "byteLength" : 360,
            "byteOffset" : 5760
        },
        {
            "buffer" : 0,
            "byteLength" : 3168,
            "byteOffset" : 6120
        },
        {
            "buffer" : 0,
            "byteLength" : 3168,
            "byteOffset" : 9288
        },
        {
            "buffer" : 0,
            "byteLength" : 2112,
            "byteOffset" : 12456
        },
        {
            "buffer" : 0,
            "byteLength" : 936,
            "byteOffset" : 14568
        },
        {
            "buffer" : 0,
            "byteLength" : 96,
            "byteOffset" : 15504
        },
        {
            "buffer" : 0,
            "byteLength" : 96,
            "byteOffset" : 15600
        },
        {
            "buffer" : 0,
            "byteLength" : 64,
            "byteOffset" : 15696
        },
        {
            "buffer" : 0,
            "byteLength" : 24,
            "byteOffset" : 15760
        },
        {
            "buffer" : 0,
            "byteLength" : 31284,
            "byteOffset" : 15784
        },
        {
            "buffer" : 0,
            "byteLength" : 31284,
            "byteOffset" : 47068
        },
        {
            "buffer" : 0,
            "byteLength" : 20856,
            "byteOffset" : 78352
        },
        {
            "buffer" : 0,
            "byteLength" : 8112,
            "byteOffset" : 99208
        }
    ],
    "buffers" : [
        {
            "byteLength" : 107320,
            "uri" : "data:application/octet-stream;base64,"
        }
    ]
}
